<?xml version="1.0" encoding="UTF-8"?>
<svg id="Calque_2" data-name="Calque 2" xmlns="http://www.w3.org/2000/svg" viewBox="0 0 173.64 46.23">
  <defs>
    <style>
      .cls-1, .cls-2 {
        stroke-width: 0px;
      }

      .cls-1, .cls-3 {
        fill: #7cb829;
      }

      .cls-2 {
        fill: #fff;
      }

      .cls-3 {
        stroke: #7cb829;
        stroke-miterlimit: 10;
      }
    </style>
  </defs>
  <g id="Calque_1-2" data-name="Calque 1">
    <g>
      <path class="cls-2" d="m16.13,41.9c-3.1,0-6.1-.35-8.99-1.06-2.89-.7-5.27-1.62-7.14-2.75l4.02-9.1c1.76,1.02,3.73,1.84,5.9,2.46,2.17.62,4.27.93,6.32.93,1.2,0,2.14-.08,2.83-.24.69-.16,1.19-.39,1.51-.69.32-.3.48-.66.48-1.08,0-.67-.37-1.2-1.11-1.59-.74-.39-1.72-.71-2.94-.98-1.22-.26-2.55-.55-3.99-.85-1.45-.3-2.9-.7-4.36-1.19-1.46-.49-2.8-1.15-4.02-1.96-1.22-.81-2.19-1.88-2.94-3.2-.74-1.32-1.11-2.97-1.11-4.95,0-2.29.64-4.38,1.93-6.27,1.29-1.89,3.21-3.39,5.76-4.52,2.56-1.13,5.74-1.69,9.55-1.69,2.5,0,4.97.26,7.4.79,2.43.53,4.62,1.34,6.56,2.43l-3.75,9.04c-1.83-.92-3.6-1.6-5.31-2.06-1.71-.46-3.38-.69-5-.69-1.2,0-2.15.11-2.86.32-.71.21-1.21.49-1.51.85-.3.35-.45.74-.45,1.16,0,.63.37,1.14,1.11,1.51s1.72.68,2.94.93c1.22.25,2.56.51,4.02.79,1.46.28,2.92.67,4.36,1.16,1.45.49,2.78,1.15,3.99,1.96,1.22.81,2.19,1.87,2.94,3.17.74,1.3,1.11,2.93,1.11,4.87,0,2.26-.64,4.33-1.93,6.21-1.29,1.89-3.2,3.4-5.74,4.55-2.54,1.15-5.73,1.72-9.57,1.72Z"/>
      <path class="cls-2" d="m54.79,41.9c-5.68,0-10.1-1.53-13.27-4.6-3.17-3.07-4.76-7.37-4.76-12.9V4.04h12.48v19.99c0,2.82.51,4.82,1.53,6,1.02,1.18,2.4,1.77,4.12,1.77s3.15-.59,4.15-1.77c1-1.18,1.51-3.18,1.51-6V4.04h12.27v20.36c0,5.54-1.59,9.84-4.76,12.9s-7.6,4.6-13.27,4.6Z"/>
      <path class="cls-2" d="m78.53,41.06V4.04h19.78c5.11,0,8.88.91,11.32,2.72,2.43,1.82,3.65,4.13,3.65,6.95,0,1.87-.52,3.54-1.56,5-1.04,1.46-2.55,2.62-4.52,3.46-1.97.85-4.41,1.27-7.3,1.27l1.06-2.86c2.89,0,5.39.41,7.48,1.22,2.1.81,3.72,1.98,4.87,3.52,1.15,1.53,1.72,3.38,1.72,5.53,0,3.21-1.33,5.71-3.99,7.51-2.66,1.8-6.55,2.7-11.66,2.7h-20.84Zm12.27-8.73h7.51c1.38,0,2.41-.25,3.09-.74s1.03-1.22,1.03-2.17-.34-1.67-1.03-2.17c-.69-.49-1.72-.74-3.09-.74h-8.36v-8.25h6.66c1.41,0,2.44-.24,3.09-.71.65-.48.98-1.15.98-2.04s-.33-1.6-.98-2.06c-.65-.46-1.68-.69-3.09-.69h-5.82v19.57Z"/>
    </g>
    <path class="cls-3" d="m169.34.5c.49-.02.94.13,1.32.46.39.33.59.74.61,1.24,0,.1,0,.27-.01.52-.01.25-.01.5,0,.74-.04.25-.06.5-.08.75-.01.25-.02.42-.01.52.01.25.04.67.09,1.26.05.59.12,1.23.2,1.93.03.69.07,1.34.12,1.93.05.59.08,1.01.09,1.26.01.3,0,.67-.02,1.12-.03.45-.23.88-.61,1.29-.14.16-.39.36-.75.63-.36.26-.76.52-1.19.76-.44.24-.86.49-1.27.73-.41.24-.71.42-.91.52-.39.17-.75.33-1.09.5-.34.16-.68.35-1.02.57-.24.11-.48.26-.72.44-.24.18-.48.36-.72.52-.34.21-.71.44-1.12.68-.41.24-.66.39-.76.44-.68.38-1.31.84-1.91,1.39-.6.55-.88,1.04-.86,1.49.01.3.22.56.63.79.56.32,1.11.63,1.64.93.53.3,1.08.56,1.64.78.25.14.7.35,1.33.65.63.29,1.03.49,1.18.58.2.09.38.19.53.31.15.12.31.22.46.31.1.04.32.15.65.31.33.16.69.34,1.07.55.38.21.75.4,1.11.58.35.18.63.32.84.41.15.09.32.16.49.2.18.04.34.11.49.2.25.09.59.35,1,.77.42.43.68.84.8,1.23,0,.05.02.22.06.52.04.3.07.63.08,1,.02.37.03.72.05,1.04.01.32.02.53.03.63,0,.15,0,.52-.02,1.12-.02.6-.03.97-.02,1.12,0,.15.05.49.12,1.04.07.54.12.89.12,1.04,0,.1,0,.37,0,.82,0,.45,0,.74,0,.89,0,.1.03.32.07.67.04.34.06.57.07.67,0,.2-.05.51-.18.94-.13.43-.57.66-1.31.69-.4.02-.77-.04-1.12-.17-.35-.13-.66-.24-.91-.33-.46-.23-.89-.47-1.3-.72-.41-.25-.82-.52-1.23-.8-.41-.23-.8-.46-1.18-.69-.38-.23-.78-.46-1.18-.69-.87-.51-1.76-.97-2.67-1.4-.91-.43-1.8-.9-2.67-1.4-.41-.23-.8-.46-1.18-.69-.38-.23-.78-.46-1.18-.69-.51-.37-.94-.66-1.27-.87-.33-.21-.64-.39-.92-.55-.28-.16-.57-.31-.88-.44-.3-.13-.71-.31-1.21-.54-.26-.14-.64-.34-1.14-.62-.51-.27-1.02-.55-1.53-.82-.51-.27-.96-.54-1.34-.79-.38-.26-.6-.41-.65-.45-.1-.1-.21-.18-.31-.25-.1-.07-.21-.13-.31-.17-.05-.05-.23-.1-.53-.16s-.5-.09-.6-.08c-.25.01-.49.1-.73.26-.24.16-.48.34-.72.55-.53.47-.97.85-1.32,1.14-.36.29-.72.58-1.08.87-.36.29-.78.59-1.26.91-.48.32-1.08.74-1.8,1.27-.58.42-1.26.89-2.06,1.4-.8.51-1.48.97-2.06,1.4-.43.27-.85.57-1.26.91-.41.34-.85.67-1.33.99-.1.05-.28.16-.54.32-.27.16-.56.32-.87.49-.32.16-.62.33-.91.49-.29.16-.48.29-.58.4-.1.05-.42.27-.98.64-.55.37-1.02.69-1.41.96-.43.27-.85.57-1.26.91-.41.34-.8.67-1.18.98-.24.16-.63.4-1.16.72-.53.32-1.09.5-1.69.52-.3.01-.6-.04-.9-.15-.3-.11-.47-.44-.49-.98,0-.1,0-.35,0-.74,0-.4,0-.67,0-.82.04-.2.03-.66-.03-1.38-.06-.72-.09-1.2-.1-1.45,0-.2,0-.66.01-1.38.02-.72.02-1.2,0-1.45,0-.2-.05-.61-.13-1.22-.08-.62-.12-1.02-.13-1.22-.01-.3.03-.65.14-1.05.1-.4.42-.89.94-1.46.28-.31.65-.63,1.11-.94.46-.32.9-.62,1.33-.92.43-.29.83-.55,1.19-.76.36-.22.62-.35.76-.41.14-.11.36-.27.65-.48.29-.21.6-.44.94-.68.34-.24.65-.48.94-.71.29-.24.5-.38.65-.44.29-.21.59-.4.9-.56.31-.16.62-.35.9-.56.1-.06.26-.16.51-.32.24-.16.49-.35.76-.56.26-.21.53-.4.79-.56.26-.16.45-.27.54-.32.14-.11.42-.34.82-.71.4-.37.6-.65.59-.85-.01-.3-.2-.55-.56-.76-.36-.21-.71-.38-1.06-.51-.25-.09-.8-.32-1.63-.71-.84-.38-1.74-.8-2.7-1.25-1.11-.5-2.36-1.08-3.73-1.76-.51-.23-1-.4-1.47-.53-.48-.13-.97-.3-1.48-.53-.61-.22-1.24-.56-1.91-1.03-.42-.38-.67-.74-.76-1.08-.09-.34-.16-1.03-.21-2.07,0-.15,0-.42,0-.82,0-.4,0-.67,0-.82,0-.1-.03-.36-.07-.78-.04-.42-.07-.68-.07-.78,0-.1,0-.38,0-.86,0-.47,0-.76,0-.85-.01-.25-.07-.7-.17-1.37-.1-.67-.16-1.1-.17-1.29-.04-.89.15-1.59.57-2.11.42-.52.78-.78,1.08-.79.4-.02.78.06,1.16.25.38.18.85.41,1.41.68.36.23.7.41,1.03.55.33.13.67.32,1.03.55.25.14.52.3.8.48.28.18.55.35.8.48,1.07.65,2.14,1.28,3.21,1.9s2.19,1.18,3.35,1.67c.4.18.8.34,1.17.47.38.13.75.31,1.1.55.3.13.61.28.91.44.3.16.61.33.92.52.25.14.52.26.8.37.28.11.54.24.8.37.61.22,1.24.56,1.91,1.03.41.28.73.49.96.63.23.14.7.39,1.41.75.15.09.54.32,1.15.69.61.37,1.04.55,1.29.54.2,0,.4-.09.62-.25s.44-.32.69-.48c.05-.05.22-.17.5-.36.29-.19.6-.39.94-.6.34-.21.65-.41.94-.6.29-.19.46-.28.51-.28.14-.11.3-.19.47-.25.17-.06.33-.14.47-.25.14-.11.28-.2.4-.28.12-.08.25-.17.4-.28.24-.16.49-.31.76-.44.27-.14.52-.28.76-.44l1.08-.72c1.39-.96,2.55-1.72,3.47-2.28.92-.56,1.96-1.14,3.12-1.74.29-.16.58-.31.87-.45.29-.14.58-.31.87-.52.34-.21.66-.44.97-.68.31-.24.64-.49.97-.75.29-.26.57-.47.86-.63.29-.16.58-.35.87-.56.77-.58,1.34-.98,1.73-1.2.39-.22.83-.33,1.32-.36Z"/>
    <path class="cls-1" d="m149.95,32.82c.33.83.41,1.73.49,2.62.06.69.12,1.37.17,2.06.05.68.11,1.37.05,2.06-.15,1.71-.97,3.33-.97,5.04,0,.23.02.47.14.67s.35.35.58.29c.31-.08.41-.47.46-.79.34-2.43.68-4.88.54-7.33-.05-.91-.16-1.89.32-2.67.05-.08.11-.17.2-.22.18-.11.43-.03.57.13s.19.37.23.58c.15.99-.11,1.98-.22,2.97s-.03,2.1.66,2.82c.21-.14.26-.43.26-.69,0-.68-.18-1.35-.26-2.03s-.05-1.41.34-1.97c.42-.61,1.19-.91,1.93-.91s1.46.25,2.14.54c.87.37,1.86.81,2.7.39.16-.08.31-.2.37-.36.13-.33-.13-.68-.41-.9-.51-.4-1.13-.64-1.74-.88-3.51-1.42-6.79-3.34-10.04-5.28-.15-.09-.31-.18-.48-.21s-.38.05-.45.2c-.16.33.14,1.12.26,1.45.11.29.28.43.54.58.77.42,1.3,1.02,1.62,1.84Z"/>
  </g>
</svg>